<?xml version="1.0" encoding="UTF-8" standalone="no"?>
<svg
   xmlns:dc="http://purl.org/dc/elements/1.1/"
   xmlns:cc="http://creativecommons.org/ns#"
   xmlns:rdf="http://www.w3.org/1999/02/22-rdf-syntax-ns#"
   xmlns:svg="http://www.w3.org/2000/svg"
   xmlns="http://www.w3.org/2000/svg"
   xmlns:sodipodi="http://sodipodi.sourceforge.net/DTD/sodipodi-0.dtd"
   xmlns:inkscape="http://www.inkscape.org/namespaces/inkscape"
   width="11.720788mm"
   height="12.134021mm"
   viewBox="0 0 41.530351 42.994562"
   id="svg4263"
   version="1.1"
   inkscape:version="1.0.1 (1.0.1+r73)"
   sodipodi:docname="linkedin.svg">
  <defs
     id="defs4265" />
  <sodipodi:namedview
     id="base"
     pagecolor="#ffffff"
     bordercolor="#666666"
     borderopacity="1.0"
     inkscape:pageopacity="0.0"
     inkscape:pageshadow="2"
     inkscape:zoom="1.4"
     inkscape:cx="-205.73899"
     inkscape:cy="11.262095"
     inkscape:document-units="px"
     inkscape:current-layer="layer1"
     showgrid="false"
     fit-margin-top="0"
     fit-margin-left="0"
     fit-margin-right="0"
     fit-margin-bottom="0"
     inkscape:window-width="1366"
     inkscape:window-height="704"
     inkscape:window-x="0"
     inkscape:window-y="27"
     inkscape:window-maximized="1"
     inkscape:document-rotation="0" />
  <metadata
     id="metadata4268">
    <rdf:RDF>
      <cc:Work
         rdf:about="">
        <dc:format>image/svg+xml</dc:format>
        <dc:type
           rdf:resource="http://purl.org/dc/dcmitype/StillImage" />
        <dc:title />
      </cc:Work>
    </rdf:RDF>
  </metadata>
  <g
     inkscape:label="Layer 1"
     inkscape:groupmode="layer"
     id="layer1"
     transform="translate(-499.14935,-573.00775)">
    <rect
       style="fill:#4c4c4c;fill-opacity:1;stroke:none;stroke-width:10.2;stroke-miterlimit:4;stroke-dasharray:none;stroke-opacity:1"
       id="rect4161"
       width="41.53035"
       height="42.99456"
       x="499.14935"
       y="573.00775"
       ry="3.523982" />
    <path
       inkscape:connector-curvature="0"
       d="m 536.79577,610.2434 h -7.36718 v -12.43212 c 0,-1.95229 -2.19174,-3.57307 -4.14404,-3.57307 -1.95229,0 -3.22314,1.62078 -3.22314,3.57307 v 12.43212 h -7.36716 v -22.10152 h 7.36716 v 3.68358 c 1.2156,-1.97073 4.34664,-3.24156 6.4463,-3.24156 4.60448,0 8.28806,3.75727 8.28806,8.30649 v 13.35301 m -25.78511,0 h -7.36718 v -22.10152 h 7.36718 v 22.10152 m -3.6836,-33.15229 a 3.6835876,3.6835876 0 0 1 3.6836,3.68358 3.6835876,3.6835876 0 0 1 -3.6836,3.6836 3.6835876,3.6835876 0 0 1 -3.68358,-3.6836 3.6835876,3.6835876 0 0 1 3.68358,-3.68358 z"
       id="path4"
       style="fill:#fffef9;fill-opacity:1" />
  </g>
</svg>
